<?xml version="1.0" standalone="no"?>
<!DOCTYPE svg PUBLIC "-//W3C//DTD SVG 20010904//EN"
 "http://www.w3.org/TR/2001/REC-SVG-20010904/DTD/svg10.dtd">
<svg version="1.0" xmlns="http://www.w3.org/2000/svg"
 width="500.000000pt" height="500.000000pt" viewBox="0 0 500.000000 500.000000"
 preserveAspectRatio="xMidYMid meet">

<g transform="translate(0.000000,500.000000) scale(0.100000,-0.100000)"
fill="#000000" stroke="none">
<path d="M2283 3959 c-192 -25 -444 -123 -611 -240 -303 -210 -509 -505 -603
-866 -26 -101 -32 -142 -36 -283 -4 -98 -1 -204 6 -262 15 -131 70 -315 132
-445 80 -167 150 -265 289 -403 131 -132 214 -193 380 -280 117 -62 309 -123
440 -140 100 -13 335 -13 437 0 144 18 353 86 466 152 26 15 51 28 55 28 4 0
51 31 104 68 289 201 486 480 582 822 35 126 45 216 45 390 0 179 -10 260 -50
404 -112 400 -400 741 -780 924 -121 59 -310 117 -431 132 -94 11 -333 11
-425 -1z m402 -9 c336 -49 610 -185 845 -420 237 -237 365 -493 420 -842 20
-126 9 -369 -24 -508 -39 -165 -108 -336 -177 -438 -16 -24 -29 -45 -29 -47 0
-3 -28 -41 -62 -85 -122 -161 -325 -328 -513 -422 -190 -95 -363 -138 -595
-145 -329 -11 -585 62 -865 246 -101 67 -297 249 -346 322 -13 20 -41 61 -61
92 -153 230 -238 513 -238 792 0 502 254 966 678 1238 115 74 296 151 429 183
175 42 388 55 538 34z"/>
<path d="M2430 3691 c-9 -6 -58 -10 -115 -9 -93 2 -104 0 -160 -28 -84 -42
-110 -61 -123 -89 -6 -13 -28 -33 -49 -44 -46 -23 -64 -43 -137 -149 -48 -69
-56 -88 -51 -111 4 -20 0 -41 -14 -67 -12 -21 -24 -53 -27 -69 -5 -28 9 -173
18 -180 2 -1 17 -5 34 -8 29 -5 31 -4 42 36 6 23 26 66 44 95 l33 54 90 2 c54
2 130 -4 190 -15 144 -25 379 -53 455 -54 56 0 65 2 62 18 -4 21 14 22 61 2
40 -17 93 -20 101 -6 3 5 -6 31 -21 57 -26 47 -26 48 -4 29 13 -11 37 -40 54
-65 30 -43 31 -48 31 -157 1 -136 -4 -145 -68 -113 -67 32 -196 26 -281 -13
l-60 -27 -145 9 c-80 5 -170 17 -200 26 -72 21 -190 17 -217 -8 -12 -10 -36
-17 -59 -17 -21 0 -54 -4 -71 -9 -43 -12 -109 -66 -123 -101 -7 -16 -20 -36
-31 -46 -23 -20 -25 -44 -4 -44 16 0 21 -18 29 -103 4 -56 26 -104 70 -155 48
-55 221 -68 318 -24 26 12 74 47 106 77 33 30 66 55 75 55 24 0 50 65 42 110
-5 32 -3 40 17 54 30 22 48 20 80 -7 l27 -22 -11 -90 c-6 -49 -12 -128 -13
-175 -2 -84 -2 -85 -41 -127 -30 -31 -44 -39 -54 -33 -41 26 -71 -10 -35 -40
27 -22 -1 -28 -101 -23 l-93 6 -34 -34 c-19 -19 -40 -54 -47 -81 -8 -27 -17
-48 -20 -48 -34 0 -117 96 -151 175 -7 17 -21 41 -31 54 -10 13 -18 41 -18 63
0 24 -4 37 -10 33 -17 -10 -13 -353 5 -411 8 -27 15 -66 15 -86 0 -52 35 -135
76 -180 19 -21 45 -63 59 -93 24 -56 79 -113 121 -128 13 -5 24 -15 24 -22 0
-14 104 -105 120 -105 4 0 6 9 3 21 -5 18 -2 19 22 13 21 -5 31 -2 41 10 10
14 21 16 59 10 27 -4 54 -15 63 -25 21 -25 30 -24 86 6 66 35 104 33 119 -8
13 -35 72 -16 172 55 129 93 174 131 181 151 3 12 20 38 38 57 51 57 93 122
101 160 4 19 18 63 31 98 13 34 30 97 38 140 10 50 32 112 64 178 115 231 156
424 90 424 -12 0 -29 -7 -38 -15 -15 -14 -17 -9 -20 53 -8 133 2 507 16 589 8
52 -13 119 -55 172 -17 21 -41 65 -53 97 -36 94 -164 203 -282 240 -79 25
-432 52 -456 35z m-350 -436 c20 -24 6 -28 -15 -5 -10 11 -13 20 -8 20 6 0 16
-7 23 -15z m-170 -498 c0 -7 -7 -23 -16 -35 -19 -28 -11 -41 13 -20 10 8 37
22 60 33 76 32 218 6 286 -53 27 -24 41 -89 26 -123 -6 -16 -13 -29 -15 -29
-2 0 -19 11 -39 24 -67 46 -214 46 -271 1 -42 -34 -25 -40 30 -9 50 28 81 26
71 -5 -6 -21 10 -72 28 -83 37 -24 141 2 162 40 l14 27 1 -27 c0 -34 -82 -126
-148 -165 -42 -25 -56 -27 -142 -28 -82 0 -101 3 -136 24 -51 29 -60 46 -78
141 -15 77 -9 104 20 93 31 -12 12 18 -21 31 -19 8 -35 22 -35 31 0 23 24 67
52 92 45 42 138 69 138 40z m636 -11 c3 -9 -13 -32 -42 -58 -46 -43 -47 -43
-121 -43 -71 0 -75 1 -98 31 -16 21 -21 38 -18 57 l5 27 134 0 c107 0 136 -3
140 -14z m314 -11 c37 -19 38 -37 5 -63 -32 -25 -31 -33 5 -60 17 -13 30 -26
30 -31 0 -5 -46 -11 -102 -13 -57 -2 -113 -9 -124 -16 -19 -10 -21 -16 -14
-49 5 -21 21 -49 36 -62 23 -19 36 -22 73 -19 25 3 66 15 91 28 25 12 55 28
67 34 13 6 23 16 23 22 0 6 6 17 14 23 21 18 38 -11 38 -68 -1 -56 -41 -144
-76 -164 -12 -6 -60 -12 -111 -12 -75 0 -98 4 -140 25 -52 25 -132 99 -145
135 -11 28 7 57 30 50 31 -10 30 10 -1 24 -16 7 -40 22 -53 34 -21 18 -22 25
-13 51 12 38 52 83 91 103 73 38 227 53 276 28z m-755 -195 c0 -8 -8 -16 -17
-18 -13 -2 -18 3 -18 18 0 15 5 20 18 18 9 -2 17 -10 17 -18z m623 -17 c5 -17
-26 -29 -40 -15 -6 6 -7 15 -3 22 9 14 37 9 43 -7z m-162 -162 c76 -71 142
-99 262 -109 l85 -7 -43 -50 c-24 -27 -53 -70 -64 -95 -35 -74 -32 -73 -84
-45 -35 19 -62 25 -109 25 -84 0 -93 5 -83 40 6 23 2 42 -22 92 -38 79 -53
208 -23 208 10 0 46 -27 81 -59z m-310 -439 c78 -20 135 -23 238 -12 58 7 110
8 117 5 6 -5 -18 -20 -57 -38 -38 -16 -71 -31 -73 -33 -7 -6 43 -43 58 -44 29
0 -22 -40 -69 -54 -100 -30 -258 38 -327 140 -13 18 -23 37 -23 41 0 11 86 7
136 -5z"/>
</g>
</svg>
